<?xml version="1.0" encoding="UTF-8"?>
<svg id="Layer_1" data-name="Layer 1" xmlns="http://www.w3.org/2000/svg" viewBox="0 0 100 100">
  <defs>
    <style>
      .cls-1 {
        fill: #4caf50;
        stroke-width: 0px;
      }
    </style>
  </defs>
  <g>
    <path class="cls-1" d="M43.3507508,46.2645571c-1.0498657.4031982-1.6265869,1.0252075-1.7005005,2.1411743-.0878906,1.3292236-.1304932,11.7210083.1233521,12.361145.774292,1.9524536,4.3782349,1.5543823,6.5587769,1.4492188l.0010986-4.5054321h-2.1972656v-6.9882202h2.1842651c-.008728-1.625.0528564-3.1815186.5550537-4.5836792-1.9849854.0245361-3.9407959.0804443-5.5247803.1257935Z"/>
    <path class="cls-1" d="M47.8612489,82.7068178l.4661865-.000061.0010986-4.6183472h-2.1923218v-6.6514282h2.1939697l.0010986-4.4634399-2.4816895.0006714c-.7546997.0002441-1.524292-.0322876-2.2775269.0021973-2.7634277.5559692-1.9338379,3.7024536-1.9379883,5.7738647l-.0130005,5.3241577c-.0046387,5.6911011,1.2959595,4.6326904,6.2401733,4.6323853Z"/>
    <path class="cls-1" d="M26.5643739,66.9803774l-7.8186035-.0039673c-2.6253662.3253784-2.1717529,2.6011353-2.1722412,4.571228l.0002441,7.5864868c.0041504,4.065979,1.1943359,3.5874023,4.6749878,3.5724487l7.7615356.0029907c.4645996.0021973.9943237.0609131,1.4518433-.0042114,2.4684448-.2626343,2.1641846-2.3372192,2.1612549-4.1870728l-.0029297-7.7904663c-.0025024-4.8813477-1.8981323-3.7594604-6.0560913-3.7474365ZM28.0935487,78.3074648l-4.7523193.0044556c-.7561646.0036621-1.5554199.0795288-2.3041992-.0044556-.0944824-1.1314087-.0739136-6.7446289,0-6.8704834h7.0565186c-.0036621,2.2723999.0286255,4.5317993.074646,6.8002319l-.074646.0702515Z"/>
    <path class="cls-1" d="M48.3259095,88.9963686l.0003662-1.5422974-34.4924316.0009766c-.8197632.0031738-3.8901978.1793823-4.4637451-.2022095-.2866211-.7999878-.1435547-11.2081909-.1436768-12.8127441l.0009766-32.9376831h80.9880371v.1118774c1.8277588.0045776,3.3012085.2624512,4.4816895.7025146l-.0032349-18.5897217c-.00177-3.1132202-.0866699-6.0786133-3.9036865-7.0244751-2.1034546-.5211792-7.5933838-.1043091-10.031189-.1816406.0056152-2.637146.3847656-5.0601807-1.6344604-7.0999146-2.4452515-2.4703369-7.2925415-2.4465332-9.748291-.0027466-1.9810791,1.9713135-1.6625977,4.5480347-1.6538086,7.1026611H31.7587709c.0100708-2.6728516.3601074-4.8997192-1.6836548-6.975647-1.539978-1.5640259-3.8030396-2.1819458-5.9530029-1.97229-5.2313843.5883789-5.6729736,4.7084961-5.6727905,8.947937l-5.9537354-.0031738c-5.6507568-.0002441-7.7979126.1099243-7.758728,6.9530029l.0056763,48.729187c-.0001831,4.7528687-.0796509,9.5184326-.0071411,14.2697754.0758667,4.9707031,3.6802979,5.4071655,7.7011719,5.4052124l36.3231201-.0016479c-.3292847-1.0105591-.4310913-2.0308838-.4337769-2.8769531ZM72.3409242,13.5558168c.0893555-.8383179.8053589-1.2579956,1.5627441-1.4668579,1.3742676-.1010742,2.1763916.5803833,2.2719116,1.8930664.0846558,1.1668701.1306763,9.9129639-.1226807,10.6142578-.2247314.621521-.8856201,1.0188599-1.444519,1.3045044-.8239136.0127563-1.9592896-.4371948-2.187439-1.319397-.2660522-1.0296021-.2437744-9.4873047-.0800171-11.0255737ZM24.762494,12.0889589c.9137573-.2042847,1.9827881.1428833,2.2532349,1.1366577.2565918.940979.2438354,9.4556885.1343994,10.7885742-.088623,1.078064-.6883545,1.6293335-1.7490234,1.8865967-3.3359375.2536011-2.3881226-3.947937-2.3890991-6.1811523l.0002441-3.5274048c.001709-1.5913696-.3513184-3.7855835,1.7502441-4.1032715ZM9.3230409,21.1227724c.5443726-.307251,7.9537964-.135376,9.1262817-.1566772.0357666,2.9080811-.3546753,5.2230835,1.8719482,7.5152588,2.59375,2.670166,7.0029297,2.6919556,9.6238403.0511475,2.1294556-2.145813,1.8207397-4.7850952,1.8136597-7.5664062h35.9636841c-.0090332,2.9364624-.3321533,5.3667603,1.9265137,7.6391602,2.4946289,2.5100708,6.7623291,2.5,9.2442017-.0198364,2.2503662-2.284668,1.87146-4.682373,1.8658447-7.6193237,1.7612305-.0198364,3.524231-.0036621,5.2854614-.0024414,1.019043.0007324,3.9330444-.4460449,4.1065674.8395996.2014771,1.4942017.062439,3.5065918.0619507,5.0563965l.0024414,10.0463867c-.8112183.043335-1.6410522.0021973-2.4542236.0019531l-20.2230225-.0019531H9.2273988c.0003662-1.7744751-.1312256-15.1940918.0956421-15.7832642Z"/>
    <path class="cls-1" d="M32.6216859,56.2323915c.0009766-2.5379639.0751343-5.1013794-.0110474-7.6369629-.0947266-2.7792969-2.6539917-2.3464966-4.7104492-2.3352661l-4.6544189.0043945c-1.1691284-.003418-4.0713501-.1387939-5.0360718.0791016-1.8305054.4134521-1.640564,2.0172729-1.6403198,3.4691162l.0014648,7.87146c-.0080566,4.3173218.0026855,4.5148926,4.8774414,4.5136719l4.4642334-.0048828c1.2454834.0029297,3.9824219.1610718,5.0925293-.1402588,2.3245239-.6308594,1.6159058-4.0439453,1.6166382-5.8203735ZM28.0935487,57.710663h-7.0565186v-6.9882202h7.0565186v6.9882202Z"/>
  </g>
  <path class="cls-1" d="M85.4910137,92.431497l-27.547677.0022224c-2.8916158.0069052-5.605076.4690238-5.6175475-3.4497209l.0089102-36.2107326c-.0008903-5.4968423-.6073216-7.1535546,5.439385-7.1537789l4.2775231.0037856,26.9294369-.002671c2.8481932-.0093553,6.1694134-.2944193,6.2228676,3.6490441.0423148,3.1325912-.0006728,6.2716356-.0022292,9.4046753l.002671,26.5835785c.0017807,2.1119257.5525387,4.6510023-1.0805695,6.2959091-1.1611891,1.1694332-2.9749133.8814739-4.4708349.8812496l-4.1619357-.0035613ZM59.2867049,51.1947197v8.2229915c3.145953-.0801711,6.3159519.0006661,9.4639099.0008903l19.2211279-.0008903v-8.2229915h-28.6850377ZM84.4186815,67.199524c-.5924.0057906-1.2052845-.0160396-1.6642836.4258119-.3961929.3810504-.7128877,5.9048407.1073433,6.636874.475698.4247041,4.2354326.2403025,5.1100013.2374072,1.4019334.0069052,1.8656084-.5273714,1.8569225-1.9313098-.0084616-1.3814488.4024321-4.2536947-.5854948-5.1984165-1.0921506-.3596688-3.5813411-.1665813-4.8244888-.1703669ZM58.125509,67.199524c-1.3792196.8489528-.9750068,4.7313976-.7792483,6.1284307.106453.7589881.3627883,1.05808,1.1346897,1.1456048.8131015.0924251,4.6476652.1596829,5.5304712.0260576,1.3812245-.8284683.974565-4.9260483.7618766-6.2409054-.235178-1.4533826-2.2252839-1.0598606-3.28002-1.0605267-1.1222182-.0006661-2.246217-.0236041-3.3677691.0013389ZM71.1041751,67.199524c-.3848361.1429772-.7841486.3255913-.9618692.7246863-.1679202.3774823-.721791,6.1507027.6783684,6.5166106.4788175.1249394,4.9770421.1155874,5.6277898.0587962,1.6402309-.8743444,1.0687708-6.1008235.7180054-6.6647123-.622685-1.0010644-4.7703753-.671905-6.0622944-.6353808ZM58.8154586,79.5955838c-.6854911.0474393-1.3393583.2460931-1.4680833.9992838-.1403062.8197824-.107119,4.353025-.0285044,5.2612158.1445336,1.6720859,2.1088062,1.2404766,3.2849203,1.2386959.9407119-.0013389,1.9032472.0396438,2.8419541-.0066809,2.1829691-.1209294,1.5003733-4.4893145,1.385683-6.0493743-.1280589-1.7386708-1.7803196-1.4509358-3.1089871-1.4487066l-2.9069826.0055663ZM71.1041751,79.7318801c-.7298109.203554-.9941592.6188994-1.0549604,1.3317871-.0634722.7471826-.1142485,4.5040152.0574573,5.1273731.4024321,1.460281,5.0659059.9188816,6.3417921.8970582,1.5489204-.9046362,1.1393656-4.7013301.9130978-6.195471-.0797293-.5262568-.4801564-.8921647-.9130978-1.1607473-1.4101775-.0236041-3.9966933-.1547826-5.344289,0ZM83.3935644,79.7318801c-1.6451311.7894974-1.1084078,5.9378036-.8070866,6.5847656.1396333.2995405.5273647.4788175.8070866.6258046,1.7912279.024943,3.6040617.0463247,5.3946168,0,.4180232-.1901922.7523071-.540509,1.0148749-.9124318-.0211574-1.9324244.699519-5.2416148-1.0148749-6.2981384-1.7976845-.0022224-3.5971497-.022272-5.3946168,0Z"/>
</svg>
