<?xml version="1.0" encoding="UTF-8"?>
<svg id="Layer_1" data-name="Layer 1" xmlns="http://www.w3.org/2000/svg" viewBox="0 0 100 100">
  <defs>
    <style>
      .cls-1 {
        fill: #4caf50;
        stroke-width: 0px;
      }
    </style>
  </defs>
  <path class="cls-1" d="M61.4529991,47.1010017c.0999985-3.0900002-.4449997-5.6759987,1.7779999-8.3050003,1.3169975-1.5569992,3.1410027-2.3670006,5.1469994-2.5379982l5.4469986-.0009995c1.2360001,0,2.7870026-.112999,3.9800034.1679993,4.2870026,1.0110016,5.8440018,4.3450012,5.8440018,8.3950005l-.0019989,2.2799988c-2.4850006-.9300003-4.6600037-.9430008-6.9980011-1.5449982-1.0240021.0670013-2.0810013-.1520004-3.1119995-.1619987-3.4990005-.0310059-8.7840042.3189964-12.0840034,1.7079964Z"/>
  <path class="cls-1" d="M61.4529991,49.2729988c3.4620018-1.1739998,6.3149986-1.4589996,9.8620033-1.7560005,3.7429962-.1399994,8.8010025.4570007,12.3330002,1.7560005-.0149994.5670013-.0370026,1.1310005,0,1.6980019,3.1190033.2859993,2.9380035,5.3930016-.3030014,6.4000015-.7259979,3.5690002-2.4830017,4.9970016-4.9570007,7.1569977.1589966.7939987.3119965,1.625.7210007,2.3310013-1.2949982,2.2129974-3.1760025,3.1669998-5.5419998,3.723999-3.3239975-.1200027-5.6070023-.4710007-7.5650024-3.723999.2509995-.7770004.4670029-1.564003.7480011-2.3310013-2.8009987-1.8110008-4.4500008-4.1759987-5.1829987-7.368-2.6240005-.6100006-3.9830017-5.6170006-.1150017-6.1889992v-1.6980019h.0009995ZM71.3150024,49.4959984c-2.6640015.1399994-5.4179993.4049988-7.9640007,1.237999l-.0009995,2.8580017c.0019989,3.1339989.3139992,5.4539986,2.6540031,7.7929993,2.560997,2.5600014,4.6480026,2.6139984,7.9079971,2.7250023.637001-.2529984,1.3280029-.3190002,1.9670029-.5639992,2.8880005-1.1040001,5.2460022-4.0489998,5.7610016-7.1160011.1360016-.8079987.0889969-1.6619987.0889969-2.4790001l-.0009995-3.2169991c-3.3960037-.9830017-6.8940048-1.2450027-10.413002-1.2380028ZM61.3689995,52.9889984c-.612999.4129982-.2890015,1.0079994,0,1.5390015l.0159988.0610008c.0369987-.0970001.007-1.3190002.019001-1.5330009l-.0349998-.0670013ZM83.6940002,53.1399994c-.0159988.5089989-.0360031,1.052002-.0210037,1.5610008l.0230026-.0169983-.0019989-.0540009c.1289978-.3720016.5319977-1.2719994,0-1.4900017ZM76.4369965,65.401001l-.0650024.0100021c-.6110001.1009979-1.1800003.3730011-1.7860031.5009995-2.302002.4850006-3.9290009.0790024-6.0719986-.5110016l-.3619995,1.0690002c.2770004.3330002.5619965.6409988.8899994.9240036,2.2009964,1.7699966,5.7829971,1.5680008,7.7109985-.5360031-.0339966-.413002-.0429993-1.0960007-.2720032-1.4499969l-.0439911-.0070038Z"/>
  <path class="cls-1" d="M68.5139999,54.5270004c-1.3410034.2369995-2.0439987-1.9210014-.3619995-2.2529984,1.2939987-.3410034,1.8590012,1.8129997.3619995,2.2529984Z"/>
  <path class="cls-1" d="M77.0810013,54.5270004c-1.4850006.1959991-1.8909988-1.7659988-.4309998-2.2529984,1.522995-.1110039,1.897995,1.7879982.4309998,2.2529984Z"/>
  <path class="cls-1" d="M75.2750015,60.3279991c-4.185997,1.8079987-8.3379974-1.1689987-5.3730011-2.1689987.2089996.0600014.4189987.1759987.6179962.2639999,2.9810028,1.3120003,3.9800034-.4389992,4.9039993-.1409988.473999.1529999.9079971.9360008.7289963,1.4150009-.1189957.3199959-.5919952.4909973-.8779907.6309967Z"/>
  <path class="cls-1" d="M50.6780014,86.9189987c.5589981-2.5419998,1.355999-6.8160019,2.2360001-9.1500015,2.3069992-6.1220016,5.6930008-7.6900024,11.0830002-10.1119995.4079971.1360016,2.0999985,4.326004,7.5339966,4.9800034v6.1230011c-1.0670013-.237999-2.112999-.5619965-3.1719971-.8300018l-6.2709999-1.5250015c-1.230999-.2870026-3.1010017-1.2529984-3.8569984.0130005-.0219994.7490005-.0019989,1.5049973-.0019989,2.2549973l.0019989,4.3730011c-.243.0410004-.5040016.0279999-.7470016,0-2.9459991.4700012-3.1380005.7009964-3.1220016,3.8730011h-3.6839981Z"/>
  <path class="cls-1" d="M73.5670013,72.637001c3.2689972-.4789963,5.6780014-1.8919983,7.3939972-4.8669968,8.3570023,3.2860031,10.8069992,6.6110001,12.6009979,15.7330017.223999,1.1389999.5029984,2.2709961.6930008,3.4150009h-3.4940033l.0029984-1.1760025c-.0029984-2.302002-1.0960007-2.7249985-3.1910019-2.6969986h-.6740036v-4.4380035c0-.7259979.0400009-1.4670029,0-2.1900024-.223999-.3509979-.4929962-.538002-.8679962-.7020035-.526001.0289993-1.0820007.211998-1.5930023.3399963l-7.9639969,1.9649963c-.9690018.2419968-1.9499969.4589996-2.9079971.7399979v-6.1229858h.0010071Z"/>
  <g>
    <path class="cls-1" d="M57.4059982,48.4799995l.0470009-1.4490013v-.625l.0050011-.0019989c0-.0600014,0-.118.0009995-.1780014-.3209991-.3769989-.8050003-.6349983-1.5499992-.6920013-3.4599991-.2659988-8.7550011-.1069984-12.25-.007-1.0499992.4029999-1.6269989,1.0250015-1.7010002,2.1409988-.0880013,1.3289986-.1300011,11.7210007.1230011,12.3610001.8650017,2.1800003,5.2630005,1.4280014,7.2610016,1.4280014,2.288002-.0009995,4.6009979.0680008,6.8860016-.0009995.9959984-.223999,1.4850006-.9039993,1.7150002-1.7729988-1.8240013-1.4920006-2.9949989-3.8909988-2.8930016-6.3860016.0829964-1.9939957.9439964-3.6799965,2.3559952-4.8169975ZM53.5410004,56.9720001h-7.0960007v-6.987999h7.0960007v6.987999Z"/>
    <path class="cls-1" d="M47.644001,81.9749985c.3540001-1.6050034.75-3.2490005,1.1879997-4.625h-2.3860016v-6.651001h5.868c1.387001-1.7190018,2.9609985-2.9720001,4.6749992-4.0100021-1.5579987-.9919968-4.618-.4550018-6.2939987-.4540024l-4.5359993.0009995c-.7550011,0-1.5239983-.0319977-2.2779999.0019989-2.7630005.5559998-1.9340019,3.7020035-1.9379997,5.7740021l-.0130005,5.3239975c-.0050011,5.480011,1.2109985,4.70401,5.7140007,4.6390076Z"/>
    <path class="cls-1" d="M32.9300003,55.4939995c.0009995-2.5379982.0750008-5.1010017-.0110016-7.637001-.0950012-2.7789993-2.6539993-2.3470001-4.7099991-2.3349991l-4.6539993.0040016c-1.1690006-.0029984-4.0709991-.1389999-5.0359993.0789986-1.8309994.4129982-1.6410007,2.0169983-1.6399994,3.4690018l.0009995,7.8709984c-.0079994,4.3170013.0030003,4.5149994,4.8769989,4.5139999l4.4640007-.0050011c1.2450008.0029984,3.9820004.1609993,5.0930004-.1399994,2.3239994-.6300011,1.6159992-4.0429993,1.6159992-5.8199997ZM28.4020004,56.9720001h-7.0569992v-6.987999h7.0569992v6.987999Z"/>
    <path class="cls-1" d="M46.0699997,90.9459991l-.0019989-.026001h-.3660011l.9249992-4.2030029-32.4840012.0009995c-.8199997.0029984-3.8900003.1790009-4.4640007-.2020035-.2869997-.8000031-.1440001-11.2080002-.1440001-12.8130035l.0010004-32.9379997h48.3110027c.355999-1.4780006,1.0330009-3.0180016,2.3289986-4.5509987.0130005-.0159988.0289993-.0299988.0419998-.0449982H9.5360003c0-1.7739983-.1309996-15.1940002.0959997-15.7830009.5439997-.3069992,7.9540005-.1350002,9.1259995-.1569996.0359993,2.907999-.3549995,5.2229996,1.8719997,7.5149994,2.5939999,2.6700001,7.0030003,2.6919994,9.6239986.0510006,2.1290016-2.1459999,1.8209991-4.7849998,1.8139992-7.566h35.9640007c-.0090027,2.9360008-.3320007,5.3670006,1.9260025,7.6389999,2.4950027,2.5100002,6.762001,2.5,9.2440033-.0200005,2.25-2.2849998,1.8710022-4.6820011,1.8659973-7.6189995,1.7610016-.0200005,3.5240021-.0039997,5.284996-.0030003,1.0189972.0009995,3.9329987-.4459991,4.1070023.8400002.2009964,1.4939995.0619965,3.507.0619965,5.0559998l.0019989,10.0460014c-.810997.0429993-1.6409988.0019989-2.4540024.0019989h-3.2200012c1.0690002,1.2709999,1.8450012,2.8160019,2.3050003,4.5950012h3.3700027v27.8079987c1.9169998,1.6289978,3.3580017,3.5569992,4.4869995,5.9779968l-.0090027-51.5610008c-.0019989-3.112999-.086998-6.0790005-3.9039993-7.0240002-2.1029968-.5209999-7.5930023-.1040001-10.0309982-.1820002.0059967-2.6370001.3850021-5.0600004-1.6340027-7.0999994-2.4449997-2.4700003-7.2929993-2.447-9.7480011-.0030003-1.9810028,1.9709997-1.663002,4.5480003-1.6539993,7.1030006h-35.9639893c.0099983-2.6730003.3600006-4.8999996-1.684-6.9759998-1.539999-1.5640001-3.8029995-2.1820002-5.953001-1.9720001-5.230999.5879998-5.6730003,4.7080002-5.6730003,8.948l-5.9540005-.0030003c-5.651,0-7.7979999.1099997-7.7589998,6.9529991l.006,48.7289963c0,4.7529984-.0799999,9.5179977-.007,14.2700043.0760002,4.9710007,3.6799998,5.4069977,7.7009997,5.4049988l33.3610001-.0009995-.0359993-.1909866ZM72.6500015,12.8179998c.0889969-.8380003.8050003-1.2580004,1.5630035-1.467,1.3740005-.1009998,2.1760025.5799999,2.2720032,1.8929996.0849991,1.1669998.1309967,9.9130001-.1230011,10.6140003-.2249985.6219997-.8860016,1.0189991-1.4440002,1.3050003-.8239975.0130005-1.9589996-.4370003-2.1869965-1.3190002-.2670135-1.0310001-.2450104-9.4879999-.0810089-11.026ZM25.0709991,11.3509998c.9139996-.2040005,1.9829998.1429996,2.2530003,1.1370001.257.941.2439995,9.4560003.1340008,10.7890005-.0890007,1.0779991-.6879997,1.6289997-1.7490005,1.8869991-3.3360004.2539997-2.3880005-3.948-2.3889999-6.1809998v-3.5270004c.0030003-1.5939989-.3500004-3.7879992,1.7509995-4.1049995Z"/>
    <path class="cls-1" d="M26.8729992,66.2419968l-7.8190002-.0039978c-2.625.3249969-2.171999,2.6009979-2.171999,4.5709991v7.5859985c.0039997,4.0660019,1.1940002,3.586998,4.6749992,3.5719986l7.762001.0029984c.4650002.0019989.9939995.060997,1.4519997-.0039978,2.4679985-.2630005,2.1640015-2.336998,2.1609993-4.1869965l-.0029984-7.7900009c-.0020027-4.8809967-1.8980007-3.7589951-6.0560017-3.7470016ZM28.4020004,77.5690002l-4.7519989.0039978c-.7560005.0039978-1.5550003.0800018-2.3040009-.0039978-.0939999-1.1309967-.0739994-6.7450027,0-6.8700027h7.0569992c-.0039997,2.2720032.0289993,4.5319977.0750008,6.8000031l-.0760002.0699997Z"/>
  </g>
  <path class="cls-1" d="M73.5670013,80.9260025c3.7360001-1.0970001,7.5770035-1.7789993,11.2789993-2.8420029.0410004.0889969,0,9.9260025,0,10.8509979h2.0550003c.0019989-1.2519989-.0130005-2.5039978,0-3.7549973.5979996-.0039978,1.1969986-.0110016,1.7959976,0v3.7549973c.8550034-.0009995,5.3539963-.1019974,5.7949982.1039963.7360001.3440018.6969986,1.7779999-.1380005,1.9759979-.4929962.1169968-1.8059998.0329971-2.4120026.0329971l-37.9799995-.0009995c-.8909988.0019989-3.7169991.4319992-3.9169998-.6110001-.1349983-2.0660019.9729996-1.5029984,2.855999-1.5029984l3.5800018.0009995v-3.7539902c.5810013.0210037,1.1679993.0029984,1.75,0v3.7549973c.6800003-.0009995,1.3600006.0139999,2.0400009,0v-10.8509979c3.7610016.9189987,7.5279999,1.8079987,11.2600021,2.8420029v8.0100021h2.0370026v-8.0100021h-.0009995Z"/>
</svg>
