<?xml version="1.0" encoding="UTF-8"?>
<svg id="Layer_1" data-name="Layer 1" xmlns="http://www.w3.org/2000/svg" viewBox="0 0 100 100">
  <defs>
    <style>
      .cls-1 {
        fill: #000;
        stroke-width: 0px;
      }
    </style>
  </defs>
  <path class="cls-1" d="M57.0341727,49.3830208c-.1570434-6.6303412,5.0088252-11.3327378,11.2886898-12.1102991,7.0216755-.1525756,13.0244768,4.8939138,13.0008546,12.1102979-1.2218835.0478799-2.4641941,0-3.6879917,0h-7.5202587s-13.0812941,0-13.0812941.0000012ZM80.9368497,53.0039804c-.1321476-.4430443-.3274955-.870129-.4545339-1.3131721h-22.6009969c-1.6642885,4.210197-1.041856,7.7232679,2.9148997,10.1108555.6913788,2.9014911,1.7230212,5.8566094,4.4336332,7.5151519,3.7001218,2.2643775,9.1041113.6281786,11.0301393-3.2328173.6869101-1.3770128,1.0705849-2.7980724,1.4414891-4.2823346,3.1338673-1.9394366,4.2676523-5.3229145,3.2353694-8.7976834ZM72.3664382,72.0714769c.6620119-.4124013,2.1679797-1.1133556,2.918728-1.4019086.0472419.0919291,0,2.948733,0,3.3432593-.5815748-.3447323-1.1356992-.7443655-1.7121672-1.0999494-.3875055-.3000451-.7967141-.5719993-1.2065608-.8414013ZM63.0931533,74.0134657c.030005-1.1114414.0012761-2.2311799,0-3.3432593.7596858.307066,2.0996727.9320519,2.7559397,1.4019086-.3172819.3306881-.716277.5790226-1.0884598.8414013-.545825.3823963-1.1248476.7124464-1.66748,1.0999494ZM47.9217644,92.1629545l-2.0364713.0057472c-.919285.0025522-2.0651984.0817131-2.3888638-1.0080227-.2247142-.7564931-.1066114-7.7724263.0287277-8.6010571.5719993-3.5015813,3.0208718-5.1773607,6.1023905-6.1266495l7.3415096-2.3141715c.9269464-.2936598,1.8462302-.6211553,2.7821128-.8867266.0549008.0440492-.0478799,1.4746843-.0089375,1.6764174.0663928.3402612.1749183.6798892.2604646,1.0163221l3.4811518,13.7758607c.1991785.8165031.3594146,1.708977.7341519,2.463556h-16.2962365v-.0012761ZM65.2381513,76.5076623c.8994948-.9212004,2.850421-2.2094743,3.9210034-2.9180899.1940718.0517106,3.475407,2.5656962,3.9293029,2.9180899-.8056515,1.1439986-1.7428103,2.5331415-2.4546186,3.7154421.2457799,1.9202856.5419943,3.8373762.8165031,5.7544667.2987666,2.0881831.515182,2.2062841-.0217056,4.2095589-.1755588.6569051-.348563,1.311896-.4902862,1.9764625h-3.4977506c-.2208841-1.012489-.8101203-2.5739956-.882896-3.5290317-.0842677-1.0967592.912901-7.1225396,1.1344231-8.4114565-.4692162-.9460937-1.7964325-2.8382909-2.4539757-3.7154421ZM90.4486945,92.1633465l2.0364713.0057472c.919285.0025522,2.0651984.0817131,2.3888638-1.0080227.2247142-.7564931.1066114-7.7724263-.0287277-8.6010571-.5719993-3.5015813-3.0208718-5.1773607-6.1023905-6.1266495l-7.3415096-2.3141715c-.9269464-.2936598-1.8462302-.6211553-2.7821128-.8867266-.0549008.0440492.0478799,1.4746843.0089375,1.6764174-.0663928.3402612-.1749183.6798892-.2604646,1.0163221l-3.4811518,13.7758607c-.1991785.8165031-.3594146,1.708977-.7341519,2.463556h16.2962365v-.0012761Z"/>
  <g>
    <path class="cls-1" d="M46.4313341,73.3725549v-1.6402588h4.8039551l4.5314331-1.4285278c.3012695-.0947266.6079102-.1962891.9145508-.2978516.4263916-.1408691.8562012-.270752,1.2851562-.4035034-.024231-.262207-.0549927-.4880371-.0955811-.6538696-.6286011-2.5709839-5.0470581-1.6807251-7.1896973-1.6802368l-4.536438.0012207c-.7546997.0002441-1.524292-.0322876-2.2775269.0022583-2.7634277.5559082-1.9338379,3.7023926-1.9379883,5.7738037l-.0089111,3.6381836c1.1308594-1.3617554,2.626709-2.4741821,4.5110474-3.3112183Z"/>
    <path class="cls-1" d="M32.9168077,56.5277063c.0009766-2.5379639.0751343-5.1013794-.0110474-7.6369019-.0947266-2.7793579-2.6539917-2.3465576-4.7104492-2.3353271l-4.6544189.0043945c-1.1691284-.003418-4.0713501-.1387939-5.0360718.0791016-1.8305054.4134521-1.640564,2.0172729-1.6403198,3.4691162l.0014648,7.87146c-.0081177,4.3173828.0026855,4.5148926,4.8774414,4.5136719l4.4641724-.0048828c1.2454834.0029297,3.9824829.1610718,5.0926514-.1402588,2.3244629-.6308594,1.6158447-4.0439453,1.6165771-5.8203735ZM28.3886705,58.0059778h-7.0565186v-6.9882202h7.0565186v6.9882202Z"/>
    <path class="cls-1" d="M43.6459337,46.5598718c-1.0499268.4031982-1.6266479,1.0252075-1.7005615,2.1411743-.0878906,1.3292236-.1304932,11.7210083.1233521,12.361145.864624,2.1801147,5.2630005,1.4283447,7.2611694,1.4276123,2.0527344-.0006714,4.1235352.0430908,6.1789551.0040283-1.1175537-1.3292236-1.880249-2.8323975-2.2328491-4.487854h-6.8446655v-6.9882202h6.6405029l-.0365601-1.5401611c-.0245361-1.0362549.0513306-2.0492554.2199707-3.0308228-3.1661377-.0740967-6.9179688.0360107-9.609314.1130981Z"/>
    <path class="cls-1" d="M26.8594957,67.2756921l-7.8186035-.0039062c-2.6253662.3253174-2.1717529,2.6010742-2.1722412,4.571167l.0002441,7.5864868c.0041504,4.065979,1.1943359,3.5874023,4.6749878,3.5725098l7.7615356.0029297c.4645996.0021973.9943237.0609131,1.4518433-.0042114,2.4684448-.2626343,2.1641846-2.3372192,2.1612549-4.1870728l-.0029297-7.7904663c-.0024414-4.8813477-1.8981323-3.7594604-6.0560913-3.7474365ZM28.3886705,78.6027795l-4.7523193.0044556c-.7561646.0036621-1.5554199.0795288-2.3041992-.0044556-.0944824-1.1314087-.0739136-6.7446289,0-6.8704834h7.0565186c-.0036621,2.2723999.0286255,4.5317993.074646,6.8002319l-.074646.0702515Z"/>
    <path class="cls-1" d="M39.3705431,87.7496912l-25.2415771.0006714c-.8198242.0031738-3.8901978.1794434-4.4638062-.2022095-.2865601-.7999878-.1434937-11.2081909-.1436157-12.8127441l.0009766-32.9376221h45.3549805c.944519-1.7487183,2.2243652-3.3023071,3.7780762-4.5964355H9.5225206c.0003662-1.7744751-.1312256-15.1940918.0956421-15.7832642.5443726-.307251,7.9537354-.135376,9.1262817-.1566772.0357666,2.9080811-.3546753,5.2230835,1.8719482,7.5152588,2.59375,2.670166,7.0029297,2.6919556,9.6239014.0511475,2.1293945-2.145813,1.8207397-4.7850952,1.8135986-7.5664062h35.9637451c-.0090942,2.9364624-.3322144,5.3667603,1.9264526,7.6391602,2.4946899,2.5100708,6.7623291,2.5,9.2442627-.0198364,2.2503052-2.2846069,1.8713989-4.682373,1.8657837-7.6193237,1.7612305-.0198364,3.524231-.0036621,5.2854614-.0024414,1.019043.0007324,3.9330444-.4460449,4.1065674.8395996.2014771,1.4942017.062439,3.5066528.0619507,5.0563965l.0024414,10.0463867c-.8112183.043335-1.6410522.0021973-2.4542236.0019531l-8.3787231-.0007935c.3721313.3101807.7359619.6303101,1.0778809.9733276,1.0797119,1.083252,1.9763184,2.3042603,2.6855469,3.6219482h7.069519l.0003662,31.027771c1.7667847.6055298,3.2688599,1.4033813,4.4869995,2.4006348l-.0089111-51.2037964c-.001709-3.1132202-.0866699-6.0786133-3.9036865-7.0244751-2.1034546-.5211792-7.5933228-.1043091-10.031189-.1816406.0056152-2.637146.3847656-5.0601807-1.6344604-7.0999146-2.4451904-2.4703369-7.2925415-2.4465332-9.748291-.0026855-1.9810181,1.9712524-1.6625977,4.5479736-1.6537476,7.1026001h-35.9637451c.0100708-2.6728516.3601074-4.8997192-1.6836548-6.9755859-1.539978-1.5640869-3.8030396-2.1820068-5.9530029-1.9723511-5.2313843.5884399-5.6730347,4.7084961-5.6727905,8.947937l-5.9537354-.0031738c-5.6507568-.0002441-7.7979126.1099243-7.758728,6.9530029l.0056763,48.729187c-.0001831,4.7528687-.0796509,9.5184326-.0071411,14.2697754.0758057,4.9707031,3.6802979,5.4071655,7.7011719,5.4052124l26.9011841-.0012207c-.1998901-.8165894-.2647095-2.5725708-.2623291-4.4193726ZM72.636046,13.8511316c.0893555-.8383179.8053589-1.2579956,1.5627441-1.4668579,1.3742676-.1010742,2.1763916.5804443,2.2719116,1.8930664.0846558,1.1668701.1306763,9.9129639-.1226807,10.6143188-.2246704.621521-.8856201,1.0187988-1.444458,1.3044434-.8239746.0127563-1.9592896-.4371948-2.187439-1.319397-.2661133-1.0296021-.2438354-9.4873047-.0800781-11.0255737ZM25.0576158,12.3842737c.9137573-.2042847,1.9827881.1428833,2.2532349,1.1366577.2565308.940979.2438354,9.4556885.1343994,10.7885742-.088623,1.078064-.6883545,1.6293335-1.7490234,1.8865967-3.3359985.2536011-2.3881226-3.947937-2.3891602-6.1811523l.0002441-3.5274048c.00177-1.5913696-.3512573-3.7855835,1.7503052-4.1032715Z"/>
  </g>
</svg>